# xmcd
#
# Track frame offsets: 
#        150
#        16415
#        42932
#        66521
#        91263
#        107483
#
# Disc length: 1803 seconds
#
# Revision: 0
# Processed by: cddbd v1.5.2PL0 Copyright (c) Steve Scherf et al.
# Submitted via: ExactAudioCopy v0.99pb5
#
DISCID=46070906
DTITLE=Afrika Bambaataa and Khayan and The New World Power - (Maxi) You As
DTITLE=k For The Moon
DYEAR=1999
DGENRE=
TTITLE0=You ask for the Moon (Radio mix)
TTITLE1=You ask for the Moon (Extended)
TTITLE2=You ask for the Moon (Microchip mix)
TTITLE3=You ask for the Moon (In your mind mix)
TTITLE4=You ask for the Moon (Acappella)
TTITLE5=You ask for the Moon (PeeDoo instrumental mix)
EXTD=
EXTT0=
EXTT1=
EXTT2=
EXTT3=
EXTT4=
EXTT5=
PLAYORDER=
